<svg xmlns="http://www.w3.org/2000/svg" viewBox="0 0 64.67 52"><defs><style>.cls-1{fill:#f58634;}</style></defs><g id="Layer_2" data-name="Layer 2"><g id="Layer_1-2" data-name="Layer 1"><rect class="cls-1" width="64.67" height="52" rx="6.66"/><path d="M20.51,35.74v-18a.94.94,0,0,1,1-.55c1.66,0,3.32,0,5,0a.3.3,0,0,0,.33-.2c.36-.74.74-1.48,1.11-2.23a.82.82,0,0,1,.81-.5h8.56a.83.83,0,0,1,.83.51c.36.75.74,1.49,1.1,2.23a.29.29,0,0,0,.32.19H44.6c.64,0,.9.27.9.91v17.2c0,.67-.26.92-.93.92H21.49A1,1,0,0,1,20.51,35.74ZM44,18.7H39a.86.86,0,0,1-.84-.51c-.36-.75-.74-1.48-1.1-2.23a.3.3,0,0,0-.31-.2H29.27A.3.3,0,0,0,29,16c-.36.74-.73,1.47-1.09,2.2a.86.86,0,0,1-.87.54H22V34.8H44Z"/><path d="M33,33.35a6.59,6.59,0,1,1,6.58-6.58A6.6,6.6,0,0,1,33,33.35Zm5.12-6.6A5.13,5.13,0,1,0,33,31.88,5.13,5.13,0,0,0,38.13,26.75Z"/><path d="M42.52,20.94a.73.73,0,1,1-1.46-.09.75.75,0,0,1,.77-.68A.74.74,0,0,1,42.52,20.94Z"/><path d="M32.27,26v-.7a.74.74,0,1,1,1.47,0V26h.69a.73.73,0,0,1,.77.73.74.74,0,0,1-.78.73h-.68v.69a.74.74,0,1,1-1.47,0v-.7h-.65a.73.73,0,1,1,0-1.46Z"/></g></g></svg>