<svg xmlns="http://www.w3.org/2000/svg" viewBox="0 0 11.43 11.44"><g id="Layer_2" data-name="Layer 2"><g id="Layer_1-2" data-name="Layer 1"><path d="M2.84,0A.3.3,0,0,1,3,.3V2.89a1.35,1.35,0,0,1-.76,1.28c-.07,0-.06.09-.06.15,0,2.13,0,4.26,0,6.39a.69.69,0,0,1-.25.57.64.64,0,0,1-.7.09.62.62,0,0,1-.39-.6c0-.45,0-.9,0-1.36V4.32a.16.16,0,0,0-.1-.17,1.35,1.35,0,0,1-.71-1,.14.14,0,0,0,0-.06V0H.29A.31.31,0,0,1,.45.3c0,.74,0,1.48,0,2.21v.12h.4V.3A.29.29,0,0,1,1,0h.14A.31.31,0,0,1,1.3.3c0,.74,0,1.48,0,2.21v.12H1.7V2.5c0-.73,0-1.46,0-2.2A.31.31,0,0,1,1.85,0H2a.31.31,0,0,1,.16.3c0,.74,0,1.48,0,2.21v.12h.41V2.5c0-.73,0-1.46,0-2.2A.31.31,0,0,1,2.7,0Zm-.3,3.09H.47A.9.9,0,0,0,1,3.81c.21.08.23.11.23.34v6.51a.53.53,0,0,0,0,.13.23.23,0,0,0,.22.2.23.23,0,0,0,.22-.2V4.12c0-.19,0-.23.22-.31A.93.93,0,0,0,2.54,3.09Z"/><path d="M11.27,0a.29.29,0,0,1,.16.29V10.71a.67.67,0,1,1-1.34,0V7.56A.28.28,0,0,0,10,7.41L9.64,7a1.11,1.11,0,0,1-.31-.77c0-1,0-2,0-3A3.88,3.88,0,0,1,11.14,0ZM11,.68l-.17.16a3.47,3.47,0,0,0-1,2.49c0,1,0,1.92,0,2.87a.74.74,0,0,0,.22.55c.14.14.27.28.42.41a.42.42,0,0,1,.12.3v3.21c0,.21.07.31.22.32s.22-.11.22-.32V.68Z"/><path d="M2.55,5.71A3.17,3.17,0,1,1,5.7,8.89,3.16,3.16,0,0,1,2.55,5.71Zm.44,0A2.73,2.73,0,1,0,5.72,3,2.73,2.73,0,0,0,3,5.71Z"/><path d="M5.46,10a3.94,3.94,0,0,1-2-.65.29.29,0,0,1-.14-.19.24.24,0,0,1,.08-.2.21.21,0,0,1,.25,0,6.36,6.36,0,0,0,.58.3A3.8,3.8,0,0,0,8.64,8.17a.52.52,0,0,1,.1-.11.22.22,0,0,1,.34.27s0,.05-.06.08A4.38,4.38,0,0,1,5.46,10Z"/><path d="M5.83,1.45A4.19,4.19,0,0,1,8.76,2.73a.45.45,0,0,1,.1.14.21.21,0,0,1-.1.25.23.23,0,0,1-.27,0c-.19-.16-.36-.34-.56-.48A3.81,3.81,0,0,0,4,2.29c-.15.07-.28,0-.34-.08s0-.24.14-.32A4.41,4.41,0,0,1,5.83,1.45Z"/><path d="M2.86,8.8a.23.23,0,0,1,0-.45.23.23,0,0,1,.23.24A.22.22,0,0,1,2.86,8.8Z"/><path d="M3.66,5.64c0,.19.08.29.22.3a.23.23,0,0,0,.23-.23,1.61,1.61,0,0,1,1-1.47.22.22,0,0,0,.13-.31.24.24,0,0,0-.32-.09A2,2,0,0,0,3.66,5.64ZM5.71,4.11a.22.22,0,0,0,.23-.22.23.23,0,0,0-.23-.23.22.22,0,0,0-.22.22A.21.21,0,0,0,5.71,4.11Z"/><path d="M3.66,5.64a2,2,0,0,1,1.22-1.8.24.24,0,0,1,.32.09.22.22,0,0,1-.13.31,1.61,1.61,0,0,0-1,1.47.23.23,0,0,1-.23.23C3.74,5.93,3.66,5.83,3.66,5.64Z"/><path d="M5.71,4.11a.21.21,0,0,1-.22-.23.22.22,0,0,1,.22-.22.23.23,0,0,1,.23.23A.22.22,0,0,1,5.71,4.11Z"/></g></g></svg>