<svg xmlns="http://www.w3.org/2000/svg" viewBox="0 0 12.99 13"><g id="Layer_2" data-name="Layer 2"><g id="Layer_1-2" data-name="Layer 1"><path d="M0,3.58c0-.15,0-.3.06-.45a1.89,1.89,0,0,1,.5-1c.35-.35.69-.72,1.06-1a1.19,1.19,0,0,1,1.75,0C4,1.68,4.51,2.26,5.06,2.84a1.16,1.16,0,0,1,0,1.56c-.29.33-.62.64-.93.95a.13.13,0,0,0,0,.18,7.13,7.13,0,0,0,1.24,1.7A8.7,8.7,0,0,0,7,8.61c.18.11.36.2.56.31.23-.24.46-.48.7-.7a2.41,2.41,0,0,1,.56-.45,1.1,1.1,0,0,1,1.32.16c.6.58,1.19,1.17,1.76,1.77a1.18,1.18,0,0,1,0,1.6c-.36.41-.75.8-1.14,1.18a1.9,1.9,0,0,1-1.09.5L9.6,13H9.12L9,13c-.27-.05-.55-.08-.82-.15a9.66,9.66,0,0,1-2.65-1.22A13.29,13.29,0,0,1,.78,6.36,7.49,7.49,0,0,1,.09,4.42C.05,4.2,0,4,0,3.76Zm.75.11c0,.15,0,.29,0,.44a1.42,1.42,0,0,0,0,.2,8.1,8.1,0,0,0,1,2.5A12.53,12.53,0,0,0,7,11.59a5.94,5.94,0,0,0,2.13.66,1.42,1.42,0,0,0,1.21-.41l.84-.86a.69.69,0,0,0,.11-.13.5.5,0,0,0,0-.69c-.2-.22-.42-.43-.63-.64l-1-1a.48.48,0,0,0-.74,0l-.11.11L8,9.51a.54.54,0,0,1-.67.13c-.25-.13-.49-.26-.72-.4A9.18,9.18,0,0,1,4.51,7.4,6.75,6.75,0,0,1,3.43,5.83c-.23-.5-.2-.63.2-1s.56-.55.83-.84a.48.48,0,0,0,0-.71l-.08-.09L2.91,1.7a.85.85,0,0,0-.19-.14.52.52,0,0,0-.66.15c-.28.27-.55.56-.84.83A1.42,1.42,0,0,0,.75,3.69Z"/><path d="M7.23,0c.15,0,.34.06.52.11a7,7,0,0,1,4.94,4.51c.12.36.2.73.29,1.1a.35.35,0,0,1-.28.43.36.36,0,0,1-.43-.26c-.06-.21-.09-.42-.15-.63A6.17,6.17,0,0,0,9.8,1.88,6.08,6.08,0,0,0,7.27.76L7.06.71A.37.37,0,0,1,6.83.3.39.39,0,0,1,7.23,0Z"/><path d="M7.13,2.36a3.88,3.88,0,0,1,1,.3,4.23,4.23,0,0,1,2.49,3.15.37.37,0,0,1-.28.45A.37.37,0,0,1,9.91,6a7.29,7.29,0,0,0-.26-.83A3.47,3.47,0,0,0,7.06,3.1a.37.37,0,1,1,.07-.74Z"/></g></g></svg>