<svg xmlns="http://www.w3.org/2000/svg" viewBox="0 0 9.5 11.99"><g id="Layer_2" data-name="Layer 2"><g id="Layer_1-2" data-name="Layer 1"><path d="M5,0a4.23,4.23,0,0,1,.51.13A2.3,2.3,0,0,1,7.06,2.26s0,.06,0,.1h1A.85.85,0,0,1,9,3.2c.08.94.15,1.88.23,2.81s.13,1.68.2,2.51c0,.44.06.88.1,1.32A1.94,1.94,0,0,1,7.61,12c-.85,0-1.7,0-2.56,0H2A2,2,0,0,1,.06,10.51a2.64,2.64,0,0,1,0-1L.21,7.31c.06-.84.13-1.69.2-2.53,0-.53.09-1.05.12-1.58a.86.86,0,0,1,.88-.84h1c0-.22,0-.43.1-.64A2.33,2.33,0,0,1,4.43,0l.08,0ZM2.43,3.07h-1c-.13,0-.17,0-.19.18L1.14,4.49C1.06,5.43,1,6.36.91,7.29S.78,9,.7,9.87A1.26,1.26,0,0,0,2,11.28H7.52A1.24,1.24,0,0,0,8.79,9.93c0-.51-.08-1-.12-1.54-.07-.93-.15-1.86-.22-2.8C8.39,4.8,8.32,4,8.26,3.22a.15.15,0,0,0-.17-.15h-1v.11c0,.24,0,.48,0,.72a.35.35,0,1,1-.7,0V3.08H3.14c0,.28,0,.55,0,.82a.34.34,0,0,1-.22.34.35.35,0,0,1-.48-.32Zm3.94-.71A1.6,1.6,0,0,0,5.55.92,1.55,1.55,0,0,0,3.85,1a1.59,1.59,0,0,0-.72,1.38Z"/><path d="M5.27,7.3l.26.24.78.78a.35.35,0,0,1,0,.54.36.36,0,0,1-.54,0L4.9,7.9l-.09-.11-.11.1-.93.94A.38.38,0,0,1,3.41,9a.34.34,0,0,1-.26-.24.35.35,0,0,1,.1-.37L4,7.64l.34-.33L4.19,7.2l-.94-.94a.35.35,0,0,1,.13-.6.34.34,0,0,1,.38.11l.94.94.09.09.1-.09,1-1a.36.36,0,0,1,.37-.11.34.34,0,0,1,.24.26.38.38,0,0,1-.13.36l-.93.93Z"/></g></g></svg>