<svg xmlns="http://www.w3.org/2000/svg" viewBox="0 0 18.04 17.05"><g id="Layer_2" data-name="Layer 2"><g id="Layer_1-2" data-name="Layer 1"><path d="M0,14.2a3.11,3.11,0,0,1,.6-1.12,2.59,2.59,0,0,1,1.87-.89c.13,0,.18,0,.21-.17.11-.4.23-.8.35-1.2a.25.25,0,0,1,.33-.2.26.26,0,0,1,.17.35l0,.1c-.11.39-.22.78-.34,1.17a.25.25,0,0,0,.06.26l1.79,2a.37.37,0,0,0,.23.1,1.89,1.89,0,0,0,.35,0,8.43,8.43,0,0,1-.42-6.67H4.4L4,9.52c0,.07,0,.15-.07.22a.25.25,0,0,1-.32.17.24.24,0,0,1-.18-.31c.06-.24.13-.47.2-.71s.18-.63.27-1H3.57c-.19,0-.29-.1-.29-.29,0-.46,0-.92,0-1.38a.38.38,0,0,1,.54-.4c.57.17,1.14.36,1.7.56a1.56,1.56,0,0,0,.64.07l1.14-.1a.54.54,0,0,0,.21-.08,1.11,1.11,0,0,0,.61-1.1,2,2,0,0,1,.08-.53,1.87,1.87,0,0,1-1.45-2.1c-.43-.07-.45-.1-.41-.52a2.23,2.23,0,0,1,4.4-.28,2.44,2.44,0,0,1-.51,2.16l-.07.1a3.86,3.86,0,0,1,1.23,1.6A7.34,7.34,0,0,1,12,8.32c0,.4,0,.8,0,1.22h1.09V6.12a1,1,0,0,1,1-1H17a1,1,0,0,1,1,1v3a1,1,0,0,1-1,1H15.76c-.07.45.15,1-.3,1.29.1.32.21.63.28,1a3.77,3.77,0,0,1,0,1.42,2.09,2.09,0,0,0,0,.66,2.2,2.2,0,0,1,0,.36c0,.23-.12.37-.35.36s-.28.05-.33.26a2.24,2.24,0,0,1-4.36-.11c0-.12-.07-.15-.19-.15-1.73,0-3.47,0-5.21,0-.11,0-.17,0-.18.15,0,.32-.17.39-.49.32l-.22-.05a2.06,2.06,0,0,1-2.34,1.27c-1-.21-1.47-.89-1.6-2.17-.19-.08-.44,0-.56-.26Zm5.87-.28a5.15,5.15,0,0,1,.21.52c0,.13.11.16.24.16h3.75a2.9,2.9,0,0,1,5.21-1.47,3.33,3.33,0,0,0-.3-1.45.24.24,0,0,0-.26-.16H12.47c-.19,0-.31-.1-.31-.26s.11-.26.3-.26H15c.11,0,.23,0,.24-.14s0-.5,0-.75H11.74a.23.23,0,0,0-.15.07,1.43,1.43,0,0,1-.91.38c-.42,0-.85,0-1.28,0-.16,0-.23.06-.24.21V11H11.1a.65.65,0,0,1,.2,0,.23.23,0,0,1,.19.26.23.23,0,0,1-.19.24H9.15v1.71c0,.62-.09.71-.71.71ZM8.51,8.54l-.17-.68a4.66,4.66,0,0,1-.49.06h-2c-.1,0-.16,0-.2.12A7.86,7.86,0,0,0,5.53,13c.15.48.14.48.64.44h0l0,0s0-.08,0-.12A1.08,1.08,0,0,1,7,12.29c.1,0,.1-.09.1-.17V10.93a3.59,3.59,0,0,1,.22-1.3A1.79,1.79,0,0,1,8.51,8.54Zm2.12,6h4.65a2.34,2.34,0,0,0-4.65,0Zm-2-9.24.24-.1a.92.92,0,0,1,1,.29A.84.84,0,0,1,10,6.59,2.18,2.18,0,0,1,9.49,7a5,5,0,0,1-.59.38.15.15,0,0,0-.07.2c.06.23.12.46.17.68s.08.17.22.17h2.07l.17,0a7,7,0,0,0-.67-2.84,3,3,0,0,0-1-1.16.24.24,0,0,0-.2,0c-.25.07-.5.15-.74.24-.06,0-.13.06-.14.11S8.66,5.13,8.62,5.34ZM11.44,9H9a1.15,1.15,0,0,0-.36.07,1.32,1.32,0,0,0-.86,1.13c-.07.5-.06,1-.08,1.51v.51H8.6l0,0c0-.45,0-.9,0-1.35s.25-.8.82-.8c.41,0,.82,0,1.23,0A.82.82,0,0,0,11.44,9Zm6.07-.81h-3.9V9.55h3.44a.42.42,0,0,0,.46-.4C17.52,8.84,17.51,8.52,17.51,8.2ZM9.29,4l.11,0a1.77,1.77,0,0,0,.87-1.5A1.76,1.76,0,0,0,8.93.57a1.72,1.72,0,0,0-2,1.1c0,.11-.06.22-.1.35H8.37a3.85,3.85,0,0,1,.48,0,.46.46,0,0,1,.42.43,1.27,1.27,0,0,1,0,.28ZM4.69,15l0,0-.12-.16c-.53-.59-1.09-1.17-1.59-1.79a.79.79,0,0,0-1-.28l-.17.05A2.15,2.15,0,0,0,.6,14.1ZM13.6,6.56h3.9a1,1,0,0,0,0-.17,3,3,0,0,0,0-.42.39.39,0,0,0-.4-.36q-1.55,0-3.09,0A.4.4,0,0,0,13.6,6C13.59,6.16,13.6,6.35,13.6,6.56Zm-2.29,8.57a1.71,1.71,0,0,0,1.81,1.39c.76-.06,1.55-.78,1.52-1.39ZM1.12,14.76a1.47,1.47,0,0,0,2.82.65ZM13.6,7.64h3.9V7.11H13.6ZM7.32,2.55a1.28,1.28,0,0,0,1.34,1.6A.16.16,0,0,0,8.76,4c0-.45,0-.91,0-1.37a.17.17,0,0,0-.09-.11ZM6.94,7v.44c.34,0,.67,0,1,0,0,0,.09,0,.14-.06L9.21,6.6a1.52,1.52,0,0,0,.31-.31.38.38,0,0,0-.34-.57.71.71,0,0,0-.36.15,5.33,5.33,0,0,0-.62.54A1.49,1.49,0,0,1,7,6.94Zm-.19,6.43H8.61v-.62c-.43,0-.85,0-1.26,0A.58.58,0,0,0,6.75,13.38Zm-2.94-6H5.05l.11-.55L3.81,6.39ZM6.39,7a6.07,6.07,0,0,0-.63.07c-.06,0-.12.12-.15.2s.07.13.11.14c.22,0,.44,0,.67,0Z"/></g></g></svg>