<svg xmlns="http://www.w3.org/2000/svg" viewBox="0 0 11.87 11.87"><g id="Layer_2" data-name="Layer 2"><g id="Layer_1-2" data-name="Layer 1"><path d="M9.35,0a1.56,1.56,0,0,1,1.1.43c.33.32.66.64,1,1a1.61,1.61,0,0,1,0,2.21l-.11.12-6.61,6.6a.84.84,0,0,1-.28.18l-3.9,1.3a.93.93,0,0,1-.24,0A.32.32,0,0,1,0,11.43c.13-.41.26-.81.4-1.21.31-.94.62-1.88.94-2.81a.72.72,0,0,1,.14-.24L8.16.51A1.67,1.67,0,0,1,9.35,0ZM2.18,7.44,4.43,9.68,10.08,4,7.84,1.79Zm8.4-3.91c.12-.12.27-.23.38-.36a.94.94,0,0,0,0-1.29,11.12,11.12,0,0,0-1-1,.87.87,0,0,0-1-.11,2.38,2.38,0,0,0-.61.53ZM.84,11l3-1-2-2Z"/></g></g></svg>