<svg xmlns="http://www.w3.org/2000/svg" viewBox="0 0 22.2 27.07"><defs><style>.cls-1{fill:#fff;}</style></defs><g id="Layer_2" data-name="Layer 2"><g id="Layer_1-2" data-name="Layer 1"><path class="cls-1" d="M6.66,0A11.82,11.82,0,0,1,8.34.43,5.88,5.88,0,0,1,12.2,5.25,6.09,6.09,0,0,1,8,12,6.14,6.14,0,0,1,2.64,1.1a6,6,0,0,1,2.7-1L5.6,0ZM6.14,11A4.84,4.84,0,1,0,1.31,6.13,4.86,4.86,0,0,0,6.14,11Z"/><path class="cls-1" d="M5.13,13.1H7.07v.35c0,3.6,0,7.19,0,10.79,0,.6.3.88.89.88H19.4c.6,0,.84-.23.84-.84V7.09c0-.62-.23-.85-.86-.85H13.2l-.29-2h6.53A2.64,2.64,0,0,1,22.2,7V24.3a2.63,2.63,0,0,1-2.77,2.77H7.82a2.6,2.6,0,0,1-2.62-2,3,3,0,0,1-.08-.73q0-5.53,0-11.08A1.12,1.12,0,0,1,5.13,13.1Z"/><path class="cls-1" d="M13.8,13.37H10.34a.67.67,0,0,1-.65-.4.54.54,0,0,1,.11-.66.91.91,0,0,1,.53-.23c2.32,0,4.63,0,7,0a.65.65,0,0,1,.7.66.67.67,0,0,1-.72.64C16.11,13.38,15,13.37,13.8,13.37Z"/><path class="cls-1" d="M13.82,16c1.15,0,2.29,0,3.44,0a.88.88,0,0,1,.54.2.62.62,0,0,1-.3,1.06,1.42,1.42,0,0,1-.36,0H10.5a1.3,1.3,0,0,1-.44-.05.65.65,0,0,1-.4-.7.66.66,0,0,1,.59-.55h3.57Z"/><path class="cls-1" d="M13.85,20.13h3.49a.64.64,0,0,1,.26,1.23.91.91,0,0,1-.33.05h-6.9a.65.65,0,1,1,0-1.3Z"/><path class="cls-1" d="M6.79,5.49h3a.67.67,0,0,1,.72.64.65.65,0,0,1-.71.66H6.2a.67.67,0,0,1-.71-.74V3a.66.66,0,1,1,1.3,0c0,.72,0,1.44,0,2.16Z"/></g></g></svg>