<svg xmlns="http://www.w3.org/2000/svg" viewBox="0 0 14.98 18.26"><defs><style>.cls-1{fill:#fff;}</style></defs><g id="Layer_2" data-name="Layer 2"><g id="Layer_1-2" data-name="Layer 1"><path class="cls-1" d="M4.49,0A6.93,6.93,0,0,1,5.62.29,3.94,3.94,0,0,1,8.23,3.55,4.09,4.09,0,0,1,5.42,8.08,4.14,4.14,0,0,1,1.78.75,3.93,3.93,0,0,1,3.61,0l.17,0ZM4.14,7.41A3.27,3.27,0,1,0,.88,4.14,3.29,3.29,0,0,0,4.14,7.41Z"/><path class="cls-1" d="M3.46,8.84H4.77v.24c0,2.42,0,4.85,0,7.27a.53.53,0,0,0,.61.6h7.72c.41,0,.57-.16.57-.57V4.78c0-.41-.16-.57-.58-.57H8.9L8.71,2.89h4.41A1.77,1.77,0,0,1,15,4.75V16.4a1.77,1.77,0,0,1-1.87,1.86H5.28a1.75,1.75,0,0,1-1.77-1.32,2,2,0,0,1-.06-.49V9C3.45,8.93,3.46,8.87,3.46,8.84Z"/><path class="cls-1" d="M9.31,9H7a.44.44,0,0,1-.44-.27.35.35,0,0,1,.07-.44A.59.59,0,0,1,7,8.15h4.69a.44.44,0,1,1,0,.88Z"/><path class="cls-1" d="M9.33,10.81h2.31A.67.67,0,0,1,12,11a.42.42,0,0,1-.2.72,1,1,0,0,1-.25,0H7.09a1,1,0,0,1-.3,0,.43.43,0,0,1-.27-.47.45.45,0,0,1,.4-.37H9.33Z"/><path class="cls-1" d="M9.34,13.59H11.7a.43.43,0,0,1,.18.83.59.59,0,0,1-.23,0H7a.44.44,0,1,1,0-.87H9.34Z"/><path class="cls-1" d="M4.58,3.71h2a.44.44,0,0,1,.48.43.43.43,0,0,1-.47.44H4.18a.44.44,0,0,1-.47-.5c0-.68,0-1.36,0-2.05a.44.44,0,1,1,.87,0c0,.49,0,1,0,1.47Z"/></g></g></svg>