<svg xmlns="http://www.w3.org/2000/svg" viewBox="0 0 62.19 86.16"><defs><style>.cls-1{fill:#f58634;fill-rule:evenodd;}</style></defs><g id="Layer_2" data-name="Layer 2"><g id="Layer_1-2" data-name="Layer 1"><g id="Layer_1-3" data-name="Layer_1"><g id="_2293335061408" data-name=" 2293335061408"><path class="cls-1" d="M0,68.38V1.22C0,.36.5,0,1.94,0H8c1.73,0,2.66.86,2.66,2.74v15c-2.8.93-4.89,4.1-4.89,7.92,0,4.53,3,8.2,6.69,8.2s6.77-3.67,6.77-8.2c0-3.82-2.09-7-5-7.92V2.45c0-1.23.65-2.45,3.1-2.45h5.32Q57.77,0,57.8,17.2C57.8,24.47,52.26,29.37,41,32c-1.08.43-1.94,1.22.5,1.66,13.75,2.8,20.59,8.71,20.59,17.7C62.12,65.5,47.29,69.75,29.37,70a1.61,1.61,0,0,1-1.8-1.65V53.7h.29c2.3,0,4.17-1.3,4.17-2.81V47.72a1.48,1.48,0,0,0-.21-.79V39.45c0-.44-.58-.87-1.23-.87h0c-.65,0-1.22.43-1.22.87v5.47c0,1.15-2.16,1-2.16,0V39.45c0-.44-.58-.87-1.23-.87h0c-.71,0-1.22.43-1.22.87v5.47c0,.86-2.16.93-2.16,0V39.45c0-.44-.57-.87-1.22-.87h0c-.72,0-1.3.43-1.3.87v7.63c0,.07.07.14.07.21s-.07.29-.07.43v3.17c0,1.51,1.87,2.81,4.18,2.81V68.17c0,1.43-1.08,1.79-2.38,1.79H2.09C.94,70,0,69.6,0,68.38Z"/><path d="M0,85.94V76.66H3a4.47,4.47,0,0,1,2.38.57,2,2,0,0,1,.79,1.66c0,.29-.07.5-.07.72a1.51,1.51,0,0,1-.29.58,1,1,0,0,1-.43.5,1.63,1.63,0,0,1-.58.36,1.13,1.13,0,0,1,.65.22,1.1,1.1,0,0,1,.58.43,1.48,1.48,0,0,1,.36.65,2.59,2.59,0,0,1,.14.79,2.77,2.77,0,0,1-.94,2.16,5,5,0,0,1-2.8.64Zm4.39-6.69a1,1,0,0,0-.14-.5c0-.15-.15-.29-.22-.36a1,1,0,0,0-.5-.22,2.29,2.29,0,0,0-.72-.07H1.73v2.45H2.81a2.19,2.19,0,0,0,.72-.15,1.09,1.09,0,0,0,.5-.29c.07-.07.22-.21.22-.36A1.83,1.83,0,0,0,4.39,79.25ZM3,84.58a2.13,2.13,0,0,0,.72-.15,1.38,1.38,0,0,0,.58-.29,1.38,1.38,0,0,0,.28-.43,1.51,1.51,0,0,0,.15-.57,1.07,1.07,0,0,0-.51-.94,2.22,2.22,0,0,0-1.36-.36H1.73v2.74Z"/><path id="_1" data-name="1" d="M12.38,85.94V81.27c0-.8-.29-1.23-.86-1.23a1.55,1.55,0,0,0-.87.36c-.28.29-.5.58-.86,1v4.53H8.06v-10H9.79v2.45l-.07,1.29.43-.43c.22-.14.36-.29.5-.36s.36-.14.58-.22A2.26,2.26,0,0,1,12,78.6a3.23,3.23,0,0,1,.93.15,1.71,1.71,0,0,1,.72.57,1.93,1.93,0,0,1,.36.79,2.22,2.22,0,0,1,.15,1v4.82Z"/><path id="_2" data-name="2" d="M17.78,78.75v4.68a1.58,1.58,0,0,0,.22.93.89.89,0,0,0,.71.29,1.21,1.21,0,0,0,.8-.36,6.2,6.2,0,0,0,.86-.94v-4.6H22.1v7.19H20.59v-1a3.47,3.47,0,0,1-.51.5,1.31,1.31,0,0,1-.5.36A1.43,1.43,0,0,1,19,86a2.14,2.14,0,0,1-.72.14,1.91,1.91,0,0,1-.93-.22,2.32,2.32,0,0,1-.72-.5,2.62,2.62,0,0,1-.43-.79,4,4,0,0,1-.15-1.08V78.75Z"/><polygon id="_3" data-name="3" points="28.58 85.94 25.91 82.34 25.91 85.94 24.18 85.94 24.18 75.94 25.91 75.94 25.91 81.84 28.43 78.75 30.59 78.75 27.64 82.06 30.81 85.94 28.58 85.94"/><path id="_4" data-name="4" d="M36.42,85.94V81.27c0-.8-.29-1.23-.86-1.23a1.55,1.55,0,0,0-.87.36,7,7,0,0,0-.86,1v4.53H32.1v-10h1.73v2.45l-.07,1.29.43-.43a2.23,2.23,0,0,1,.5-.36c.15-.07.36-.14.58-.22a2.06,2.06,0,0,1,.65-.07,3.9,3.9,0,0,1,1,.15,1.23,1.23,0,0,1,.64.57,1.46,1.46,0,0,1,.44.79,4.4,4.4,0,0,1,.14,1v4.82Z"/><path id="_5" data-name="5" d="M44.63,85.94V85a1.39,1.39,0,0,1-.51.43,1.59,1.59,0,0,1-.57.36,1.4,1.4,0,0,1-.65.29c-.22,0-.43.07-.72.07a2,2,0,0,1-1-.22,1.45,1.45,0,0,1-.72-.43,5.7,5.7,0,0,1-.43-.72,3.09,3.09,0,0,1-.14-.86,2.06,2.06,0,0,1,.21-.94,2.41,2.41,0,0,1,.65-.79,5.71,5.71,0,0,1,1.15-.5,9.33,9.33,0,0,1,1.59-.15h.93v-.43c0-.21-.07-.36-.07-.5a.65.65,0,0,0-.29-.36c-.07-.15-.21-.22-.43-.29a2.29,2.29,0,0,0-.72-.07,8.16,8.16,0,0,0-1.22.14,4.2,4.2,0,0,0-1.23.43V79.11a5.53,5.53,0,0,1,1.23-.36A4.21,4.21,0,0,1,43,78.6a7.33,7.33,0,0,1,1.44.15,3.51,3.51,0,0,1,.94.43,1.75,1.75,0,0,1,.5.79,2.34,2.34,0,0,1,.22,1.08v4.89Zm-.22-3.16H43.33c-.29,0-.57.07-.72.07a1.09,1.09,0,0,0-.5.29.89.89,0,0,0-.29.29.91.91,0,0,0-.07.43.69.69,0,0,0,.29.64.82.82,0,0,0,.72.29,1.74,1.74,0,0,0,.79-.29c.21-.14.5-.43.86-.72Z"/><path id="_6" data-name="6" d="M52.69,85.94,52.62,85a1,1,0,0,1-.51.43,2.23,2.23,0,0,1-.5.36,2.65,2.65,0,0,1-.65.29c-.29,0-.5.07-.79.07a2.23,2.23,0,0,1-1-.22,1,1,0,0,1-.65-.43,1.48,1.48,0,0,1-.43-.72,1.7,1.7,0,0,1-.14-.86,2.06,2.06,0,0,1,.21-.94,2.41,2.41,0,0,1,.65-.79,3.87,3.87,0,0,1,1.08-.5,10.12,10.12,0,0,1,1.59-.15h.93v-.43a1.08,1.08,0,0,0-.07-.5.65.65,0,0,0-.29-.36c-.07-.15-.21-.22-.43-.29A1.83,1.83,0,0,0,51,79.9a8.08,8.08,0,0,0-1.29.14,4.2,4.2,0,0,0-1.23.43V79.11a5.53,5.53,0,0,1,1.23-.36,4.46,4.46,0,0,1,1.44-.15,6.56,6.56,0,0,1,1.36.15,2.73,2.73,0,0,1,.94.43A3.1,3.1,0,0,1,54,80a4.5,4.5,0,0,1,.14,1.08v4.89Zm-.29-3.16H51.32c-.29,0-.5.07-.72.07a1.09,1.09,0,0,0-.5.29.89.89,0,0,0-.29.29.91.91,0,0,0-.07.43.69.69,0,0,0,.29.64.88.88,0,0,0,.79.29,1.83,1.83,0,0,0,.72-.29,3.65,3.65,0,0,0,.86-.72Z"/><path id="_7" data-name="7" d="M60.68,85.94l-.07-1c-.15.14-.29.36-.43.5A2.28,2.28,0,0,1,59,86a2.1,2.1,0,0,1-.64.14,2.64,2.64,0,0,1-1.16-.29,2.08,2.08,0,0,1-.86-.72,4.07,4.07,0,0,1-.5-1.15,4.69,4.69,0,0,1-.15-1.51,6.11,6.11,0,0,1,.22-1.73,4.94,4.94,0,0,1,.79-1.22,4.79,4.79,0,0,1,1.22-.72,4.52,4.52,0,0,1,1.44-.22,1.65,1.65,0,0,1,.58.07c.14,0,.36.08.5.08V75.94h1.73v10Zm-3.17-3.52a4.27,4.27,0,0,0,.07,1c.08.28.15.5.22.71a1.71,1.71,0,0,0,.43.36,1,1,0,0,0,.51.15,1.55,1.55,0,0,0,.86-.36,5.31,5.31,0,0,0,.86-.94V80.19A1.2,1.2,0,0,0,60,80c-.22,0-.43-.07-.65-.07a1.18,1.18,0,0,0-.72.22,1.08,1.08,0,0,0-.57.43,2.39,2.39,0,0,0-.36.79A2.22,2.22,0,0,0,57.51,82.42Z"/></g></g></g></g></svg>