<svg xmlns="http://www.w3.org/2000/svg" viewBox="0 0 11 16"><defs><style>.cls-1{fill:none;stroke:#fff;stroke-miterlimit:10;}.cls-2{fill:#fff;}</style></defs><g id="Layer_2" data-name="Layer 2"><g id="Layer_1-2" data-name="Layer 1"><rect class="cls-1" x="0.5" y="0.5" width="10" height="15" rx="1.12"/><path class="cls-2" d="M5.61,5.76H3.28a.45.45,0,0,1-.44-.27.35.35,0,0,1,.08-.44.54.54,0,0,1,.35-.16H8a.44.44,0,1,1,0,.88Z"/><path class="cls-2" d="M5.63,7.55H8a.67.67,0,0,1,.36.14.42.42,0,0,1-.2.72,1,1,0,0,1-.24,0H3.39a1,1,0,0,1-.3,0,.43.43,0,0,1-.27-.47.46.46,0,0,1,.4-.37H5.63Z"/><path class="cls-2" d="M5.65,10.33H8a.42.42,0,0,1,.43.35.42.42,0,0,1-.25.48.57.57,0,0,1-.22,0H3.3a.45.45,0,0,1-.49-.43.44.44,0,0,1,.5-.44H5.65Z"/></g></g></svg>