<svg xmlns="http://www.w3.org/2000/svg" viewBox="0 0 17.67 26"><defs><style>.cls-1{fill:none;stroke:#fff;stroke-miterlimit:10;}.cls-2{fill:#fff;}</style></defs><g id="Layer_2" data-name="Layer 2"><g id="Layer_1-2" data-name="Layer 1"><rect class="cls-1" x="0.5" y="0.5" width="16.67" height="25" rx="1.12"/><path class="cls-2" d="M9,9.27H5.13a.75.75,0,0,1-.73-.45.59.59,0,0,1,.13-.74,1.07,1.07,0,0,1,.59-.27h7.81a.74.74,0,1,1,0,1.47Z"/><path class="cls-2" d="M9.05,12.25c1.29,0,2.57,0,3.86,0a1,1,0,0,1,.61.23.7.7,0,0,1-.33,1.19,1.89,1.89,0,0,1-.41,0H5.31a1.35,1.35,0,0,1-.49-.06.71.71,0,0,1-.45-.78A.74.74,0,0,1,5,12.25h4Z"/><path class="cls-2" d="M9.08,16.88H13a.72.72,0,0,1,.72.58.7.7,0,0,1-.42.8.94.94,0,0,1-.37.07H5.17a.73.73,0,1,1,0-1.45h3.9Z"/></g></g></svg>