<svg xmlns="http://www.w3.org/2000/svg" viewBox="0 0 34.08 28.1"><defs><style>.cls-1{fill:#000;}</style></defs><g id="Layer_2" data-name="Layer 2"><g id="Layer_1-2" data-name="Layer 1"><path class="cls-1" d="M2,23.9A14.43,14.43,0,0,1,3.3,18.51a14.83,14.83,0,0,1,11-8.7c.37-.07.57-.18.65-.59a2.18,2.18,0,0,1,4.23,0c.07.38.23.49.58.55A15,15,0,0,1,31.87,22.28c.08.53.13,1.06.21,1.66h1.19c.6,0,.8.2.8.78q0,1.32,0,2.64c0,.51-.21.72-.72.74H1c-.85,0-1-.14-1-1V24.69c0-.53.22-.74.75-.75H1.9Zm28.77,0a13.35,13.35,0,0,0-6.73-11.24,13.29,13.29,0,0,0-14.75.45A13.41,13.41,0,0,0,3.21,23.92Zm-29.59,3H32.85V25.16H1.21ZM18,9.55a.93.93,0,0,0-1.84,0Z"/><path class="cls-1" d="M13.83,5.74c-.56,0-.87-.53-.59-.89a1.56,1.56,0,0,0,0-2A2.06,2.06,0,0,1,13,1.14,2.65,2.65,0,0,1,13.49.3a.57.57,0,0,1,.9-.06.58.58,0,0,1-.07.89c-.38.37-.23.74-.06,1.13a7.31,7.31,0,0,1,.5,1.24,2.27,2.27,0,0,1-.51,2A1.52,1.52,0,0,1,13.83,5.74Z"/><path class="cls-1" d="M20.44,0c.15.14.37.25.44.41a.67.67,0,0,1-.06.58c-.57.52-.33,1,0,1.52a2.47,2.47,0,0,1-.07,2.83c-.27.41-.61.51-.92.3s-.34-.54-.06-1a1.4,1.4,0,0,0,0-1.63,2.21,2.21,0,0,1-.37-1.85,3.77,3.77,0,0,1,.62-1A1.59,1.59,0,0,1,20.44,0Z"/><path class="cls-1" d="M17,5.74c-.56,0-.86-.53-.58-.89a1.61,1.61,0,0,0,0-2,2.05,2.05,0,0,1-.17-2,2.19,2.19,0,0,1,.6-.69.5.5,0,0,1,.72.1.51.51,0,0,1,0,.76c-.5.46-.36.91-.07,1.37A2.38,2.38,0,0,1,18,4.13a5.81,5.81,0,0,1-.55,1.35C17.33,5.62,17.1,5.69,17,5.74Z"/><path class="cls-1" d="M6,20.21c-.47,0-.7-.45-.48-.93A12.78,12.78,0,0,1,11,13.46c.43-.23.77-.17,1,.18s0,.63-.38.86a11.48,11.48,0,0,0-4.92,5.23C6.53,20,6.37,20.22,6,20.21Z"/></g></g></svg>