<svg xmlns="http://www.w3.org/2000/svg" viewBox="0 0 10.15 11.93"><g id="Layer_2" data-name="Layer 2"><g id="Layer_1-2" data-name="Layer 1"><path d="M.16,11.93A.34.34,0,0,1,0,11.6V9.2A3.17,3.17,0,0,1,2.52,6.06a7.28,7.28,0,0,1,1-.08h.18l.06-.55a.19.19,0,0,0,0-.1l-.37-.57s0-.07-.07-.09A2.51,2.51,0,0,1,2.4,3a2.73,2.73,0,0,1,.15-1.44A2.31,2.31,0,0,1,4.16.14,2.94,2.94,0,0,1,6.72.5a2.19,2.19,0,0,1,1,1.7,2.91,2.91,0,0,1-.44,1.93,4.6,4.6,0,0,1-.47.52l-.09.12-.32.5a.37.37,0,0,0,0,.14c0,.19.05.37.07.57h.24a3.63,3.63,0,0,1,1.42.2l.19.08a.24.24,0,0,1,.12.31.24.24,0,0,1-.3.12,4.41,4.41,0,0,0-.77-.21,6.92,6.92,0,0,0-.91,0,.07.07,0,0,0-.06,0c-.16.29-.31.58-.47.89H7.49c.21,0,.29.08.29.29V9.15A1.55,1.55,0,0,1,8.54,9c.21,0,.29.08.29.29,0,.59,0,1.17,0,1.75a2.47,2.47,0,0,1-.05.38h.9V9.27A2.88,2.88,0,0,0,9.42,8a.24.24,0,0,1,.11-.35.23.23,0,0,1,.31.15,3.16,3.16,0,0,1,.3,1.35c0,.83,0,1.66,0,2.48a.34.34,0,0,1-.16.29ZM7.31,7.84H2.82v2.63H7.31Zm-5,1.32V7.64a.23.23,0,0,1,.27-.27H4.24s0,0,0,0c-.13-.28-.26-.56-.4-.83a.09.09,0,0,0-.07,0,6.34,6.34,0,0,0-1.07,0A2.7,2.7,0,0,0,.47,9.19c0,.72,0,1.44,0,2.15v.12h.87c0-.12,0-.23,0-.34,0-.6,0-1.21,0-1.81A.24.24,0,0,1,1.56,9,1.56,1.56,0,0,1,2.35,9.16Zm.89-5.29V2.55c0-.2.08-.29.28-.29H6.57c.2,0,.28.09.28.28V3.88a.19.19,0,0,0,.09-.09,2.63,2.63,0,0,0,.32-1.13,1.89,1.89,0,0,0-1.19-2A2.61,2.61,0,0,0,4,.69,1.75,1.75,0,0,0,2.9,2a2.66,2.66,0,0,0,0,1.19A1.64,1.64,0,0,0,3.24,3.87ZM6.38,4A1,1,0,0,1,5,3.9,1,1,0,0,1,3.7,4a1.35,1.35,0,0,0,.61,1.17,1.25,1.25,0,0,0,1.42,0A1.3,1.3,0,0,0,6.38,4Zm0-1.27H3.71a1.2,1.2,0,0,0,.15.74.5.5,0,0,0,.83.1.45.45,0,0,1,.71,0,.42.42,0,0,0,.59.1.8.8,0,0,0,.27-.28A1.09,1.09,0,0,0,6.38,2.74Zm-2.14,3a3.11,3.11,0,0,1,0,.33.43.43,0,0,0,.06.31l.29.6c.07.14.11.34.22.41s.32,0,.48,0a.12.12,0,0,0,.13-.08l.55-1a.18.18,0,0,0,0-.09c0-.16-.05-.32-.07-.49a1.9,1.9,0,0,1-.83.22A2.06,2.06,0,0,1,4.24,5.69ZM8.37,9.52c-.39,0-.59.14-.59.51v.62c0,.22-.08.3-.3.3H6.64a.37.37,0,0,0-.18.05.24.24,0,0,0-.1.28.26.26,0,0,0,.27.18H8c.29,0,.42-.12.42-.41V9.52Zm-6.6,0s0,0,0,0v1.59a.33.33,0,0,0,.36.32H3.47c.19,0,.3-.09.3-.25S3.66,11,3.47,11H2.63c-.2,0-.28-.09-.28-.28V10C2.35,9.66,2.16,9.49,1.77,9.52Zm2.45,1.94H5.9V11H4.22Z"/><path d="M9.27,7.07A.24.24,0,0,1,9,7.3a.23.23,0,1,1,0-.46A.23.23,0,0,1,9.27,7.07Z"/><path d="M6.15,9H5.78a.23.23,0,0,1-.24-.22.22.22,0,0,1,.23-.24h.76a.22.22,0,0,1,.23.24A.23.23,0,0,1,6.52,9Z"/><path d="M6.16,9.91H5.77a.22.22,0,0,1-.23-.22.22.22,0,0,1,.22-.24h.78a.22.22,0,0,1,.22.23.23.23,0,0,1-.24.23Z"/><path d="M5.1,1.68c-.11,0-.22,0-.33,0a.22.22,0,0,1-.23-.22.23.23,0,0,1,.23-.24h.67a.22.22,0,0,1,.22.24.22.22,0,0,1-.23.22C5.32,1.69,5.21,1.68,5.1,1.68Z"/></g></g></svg>