<svg xmlns="http://www.w3.org/2000/svg" viewBox="0 0 12.33 12.1"><g id="Layer_2" data-name="Layer 2"><g id="Layer_1-2" data-name="Layer 1"><path d="M0,8.29A.61.61,0,0,1,.29,7.9a.9.9,0,0,1,.39-.1H4.24a.62.62,0,0,1,.63.85.86.86,0,0,1-.27.3.19.19,0,0,0-.09.16,3.69,3.69,0,0,1,0,.58.94.94,0,0,1-.52.66.35.35,0,0,0-.17.17c0,.12-.11.23-.17.36H7.2l.34-3.21L7,8.11a.59.59,0,0,1-.55.15.93.93,0,0,1-.34-.18c-.34-.29-.67-.59-1-.88a5,5,0,0,0-.64-.47.78.78,0,0,1-.37-.94.76.76,0,0,0,0-.15c0-.25,0-.51,0-.77a.55.55,0,0,1,.32-.48.14.14,0,0,0,.09-.14c0-.25,0-.5,0-.76H4.32a.62.62,0,0,1-.63-.64c0-.4,0-.8,0-1.19A.62.62,0,0,1,4.34,1h.77a.6.6,0,0,1,.63.61c0,.42,0,.83,0,1.25a.59.59,0,0,1-.59.6,1.61,1.61,0,0,1-.22,0v.23c0,.15,0,.3,0,.45a.24.24,0,0,0,.14.26.51.51,0,0,1,.27.45c0,.17,0,.34,0,.52a.44.44,0,0,0,0,.15.87.87,0,0,1,.08.1,1.9,1.9,0,0,0,.66.72l.4.32.18-.21c.12-.15.25-.29.36-.45a.83.83,0,0,1,.48-.36l.31-.12-.07-.07a1.84,1.84,0,0,1-.42-2.16A1.18,1.18,0,0,0,7.43,3c0-.29.06-.59.09-.84a2.88,2.88,0,0,1-.4-.36A.71.71,0,0,1,7.43.76,2.25,2.25,0,0,1,7.85.63.69.69,0,0,0,8,.53a1.23,1.23,0,0,1,2,0,.23.23,0,0,0,.2.1,1,1,0,0,1,.78.54.71.71,0,0,1-.37.92.18.18,0,0,0-.1.2c0,.27,0,.54.09.81a2.29,2.29,0,0,0,.12.37,1.81,1.81,0,0,1-.51,2l-.08,0a4.32,4.32,0,0,1,.52.21.38.38,0,0,1,.18.15c.46.84.91,1.68,1.36,2.52a.68.68,0,0,1-.13.87A.68.68,0,0,1,11,8.86,1.71,1.71,0,0,0,10.55,8l.31,2.86h1.19c.19,0,.26.08.26.26v.72c0,.18-.07.25-.25.25H.31c-.13,0-.25,0-.31-.15V11a.31.31,0,0,1,.29-.14h1c-.08-.15-.14-.28-.21-.42a.29.29,0,0,0-.1-.09,1,1,0,0,1-.59-.95V9.07S.39,9,.37,9A.72.72,0,0,1,0,8.53Zm10.23-5V3.2l-.09-1c0-.34,0-.33.28-.49.13-.07.25-.16.25-.32a.36.36,0,0,0-.25-.33A1.29,1.29,0,0,0,10,1,.29.29,0,0,1,9.76.87.78.78,0,0,0,9,.41a.79.79,0,0,0-.74.46A.25.25,0,0,1,8,1a.71.71,0,0,0-.52.16.29.29,0,0,0,0,.49.91.91,0,0,0,.26.13.23.23,0,0,1,.15.26c0,.18,0,.36-.05.53s0,.45-.07.67ZM7.62,10.86h2.82L10.08,7.4l-.05,0h-2c-.07,0-.08,0-.09.1,0,.33-.07.67-.1,1C7.78,9.27,7.7,10.06,7.62,10.86Zm-7.2.82H11.89v-.39H.42Zm7.24-8a1.43,1.43,0,0,0,.55,1.59,1.44,1.44,0,0,0,1.66,0,1.42,1.42,0,0,0,.53-1.57ZM.83,9a2.77,2.77,0,0,0,0,.5.58.58,0,0,0,.57.51H3.52a.57.57,0,0,0,.56-.47,3.25,3.25,0,0,0,0-.54ZM7.9,6a1,1,0,0,0-.52.31c-.2.27-.42.53-.63.79a.22.22,0,0,1-.35,0l-.07-.06-.75-.6-.34.32,1.18,1a.22.22,0,0,0,.32,0l.82-.69A.26.26,0,0,0,7.63,7C7.72,6.67,7.81,6.33,7.9,6Zm1.79-.14a1.88,1.88,0,0,1-1.32,0L8.07,7H10ZM2.46,8.62H4.35a.19.19,0,0,0,.16-.19.19.19,0,0,0-.15-.2l-.16,0H.72l-.14,0a.19.19,0,0,0-.17.2.19.19,0,0,0,.19.19H2.46Zm9.13-.55a.54.54,0,0,0-.07-.13c-.29-.54-.6-1.07-.87-1.62A.7.7,0,0,0,10.16,6a.64.64,0,0,0,0,.09c.08.33.17.65.25,1a.42.42,0,0,0,0,.1l.66,1s.06.05.09,0ZM4.93,1.44V3.07a1.47,1.47,0,0,0,.21,0,.18.18,0,0,0,.19-.19V1.63a.18.18,0,0,0-.17-.19A1.76,1.76,0,0,0,4.93,1.44ZM4.5,3.07V1.43H4.32a.21.21,0,0,0-.21.22c0,.4,0,.81,0,1.21,0,.14.08.2.21.21A1.08,1.08,0,0,0,4.5,3.07Zm.78,3c-.06-.09-.11-.19-.18-.28a.36.36,0,0,0-.36-.14A.34.34,0,0,0,4.46,6a.32.32,0,0,0,.13.35l.29.19Zm6,2.45a2,2,0,0,0,.06.28.27.27,0,0,0,.46.13.39.39,0,0,0,0-.5h-.06ZM2.25,10.47H1.57l.18.36a.07.07,0,0,0,.05,0h.45Zm1.11,0H2.68v.4H3.1l.08,0ZM4.92,5.26c0-.12,0-.25,0-.38s-.08-.15-.18-.16a.18.18,0,0,0-.2.15c0,.15,0,.3,0,.44Z"/><path d="M2.66,7.18H2.27v-1h.39Z"/><path d="M1.24,7.37v-.8h.39v.8Z"/><path d="M3.68,7.38H3.29V6.57h.39Z"/><path d="M2.27,5.34h.39v.39H2.27Z"/><path d="M1.63,6.15H1.24v-.4h.39Z"/><path d="M3.29,6.14V5.75h.39v.39Z"/><path d="M9,8.2h.55c.19,0,.26.07.26.26a5,5,0,0,1,0,.67.81.81,0,0,1-1.61-.07c0-.21,0-.42,0-.63s.08-.23.24-.23Zm-.42.42V9a.4.4,0,0,0,.39.4.39.39,0,0,0,.42-.36,3.3,3.3,0,0,0,0-.45Z"/></g></g></svg>