<svg xmlns="http://www.w3.org/2000/svg" viewBox="0 0 9.92 9.92"><defs><style>.cls-1{fill:#666;}</style></defs><g id="Layer_2" data-name="Layer 2"><g id="Layer_1-2" data-name="Layer 1"><path class="cls-1" d="M3.27,9.92,3,9.88A3.37,3.37,0,0,1,.53,8.27,3.38,3.38,0,0,1,0,6.53c0-.19.05-.25.24-.25H9.67a.26.26,0,0,1,.25.11v.24s0,0,0,.08a3.22,3.22,0,0,1-.52,1.56A3.37,3.37,0,0,1,6.93,9.88l-.28,0ZM.34,6.62a3.18,3.18,0,0,0,.78,1.91A3.13,3.13,0,0,0,3.53,9.59H6.38a3.31,3.31,0,0,0,1.17-.2,3.09,3.09,0,0,0,2-2.23,5.07,5.07,0,0,0,.09-.54Z"/><path class="cls-1" d="M9.92,4.94c0,.12-.07.25-.12.36A1.16,1.16,0,1,1,8.63,3.64a1.15,1.15,0,0,1,1.27,1s0,0,0,.05ZM8.76,4a.83.83,0,1,0,.83.82A.83.83,0,0,0,8.76,4Z"/><path class="cls-1" d="M5.46.91V.69A.64.64,0,0,1,6,0,.66.66,0,0,1,6.72.4l0,0L6.93.27A.87.87,0,1,1,8.14,1.51L8,1.68a.67.67,0,0,1,.45.74A.65.65,0,0,1,7.85,3a.66.66,0,0,1-.08.76A.81.81,0,0,1,7.05,4a1.49,1.49,0,0,1,0,.36A.65.65,0,0,1,6.44,5H3.8A.23.23,0,0,0,3.64,5l-.87.88-.22-.24.06-.07.78-.78a.24.24,0,0,0,.08-.19V2.38a.68.68,0,0,1,1-.65,2.26,2.26,0,0,1,0-.27A.66.66,0,0,1,5.41.89ZM4,4.62H6.45a.33.33,0,0,0,0-.66h0a.18.18,0,0,1-.15-.17.17.17,0,0,1,.17-.15h.74l.16,0a.34.34,0,0,0,.25-.34A.32.32,0,0,0,7.32,3l-.1,0a.15.15,0,0,1-.11-.15.17.17,0,0,1,.13-.16H7.8a.32.32,0,0,0,.3-.31A.34.34,0,0,0,7.81,2,1.48,1.48,0,0,1,7.6,2a.26.26,0,0,1-.14-.11s0-.11,0-.16a.43.43,0,0,1,.09-.1c.13-.13.27-.26.39-.4A.53.53,0,0,0,7.73.36.52.52,0,0,0,7.17.5a5.44,5.44,0,0,0-.41.42.17.17,0,0,1-.21,0,.17.17,0,0,1-.1-.18V.7A.35.35,0,0,0,6.1.33.33.33,0,0,0,5.79.7v.71q0,.23-.15.24c-.11,0-.16,0-.19-.21a.08.08,0,0,0,0,0A.32.32,0,0,0,5,1.22a.36.36,0,0,0-.16.33v.68c0,.16,0,.24-.15.25s-.16-.06-.18-.22A.32.32,0,0,0,4.19,2a.34.34,0,0,0-.39.37v2a.41.41,0,0,0,0,.07l.24-.25A.22.22,0,0,0,4.13,4V3.08a.38.38,0,0,1,0-.1h.33v.75c.19-.19.36-.38.55-.55a.33.33,0,0,0,.11-.27c0-.25,0-.5,0-.75h.33v.58a4.53,4.53,0,0,1,.38-.38.67.67,0,0,0,.28-.68c0-.11,0-.23,0-.35h.33v.42l.69-.7.25.25L6.7,2h.41v.33H6.43a.17.17,0,0,0-.12,0l-.59.58a.08.08,0,0,1,0,0h.56v.33H6.16c-.24,0-.47,0-.71,0a.25.25,0,0,0-.15.06l-.53.52L4.71,4h.74V4.3h-1a.2.2,0,0,0-.11,0Z"/><path class="cls-1" d="M1.82,5.14v.42c0,.17-.06.23-.23.23H1.05c-.17,0-.22-.06-.22-.23V5.13H.61a.66.66,0,0,1,0-1.31.13.13,0,0,0,.12-.09.65.65,0,0,1,.62-.41.64.64,0,0,1,.6.41.14.14,0,0,0,.12.09A.66.66,0,0,1,2.14,5.1,3.11,3.11,0,0,1,1.82,5.14Zm-.5-.35H2a.32.32,0,0,0,.28-.32A.32.32,0,0,0,2,4.14H1.87c-.15,0-.2,0-.22-.19a.32.32,0,0,0-.32-.3A.31.31,0,0,0,1,3.91c0,.21-.06.22-.27.22H.59a.32.32,0,0,0-.24.21.33.33,0,0,0,.27.44Zm-.15.35v.31h.31V5.14Z"/><path class="cls-1" d="M1.93.62A.79.79,0,0,1,2.69.47.74.74,0,0,1,3,1.71a.65.65,0,0,0-.24.44.8.8,0,0,1-.83.66.82.82,0,0,1-.79-.74A.36.36,0,0,0,1,1.77.73.73,0,0,1,.61,1,.74.74,0,0,1,1.17.4a.72.72,0,0,1,.62.11Zm0,1.86a.47.47,0,0,0,.48-.43.61.61,0,0,1,.29-.54A.41.41,0,0,0,2.79.92.43.43,0,0,0,2.18.85L2,1a.17.17,0,0,1-.21,0L1.62.79a.43.43,0,0,0-.53.68l.15.11a.36.36,0,0,1,.2.39s0,0,0,.07A.5.5,0,0,0,1.94,2.48Z"/><path class="cls-1" d="M7.1,5.94H6.79c-.07-.23-.19-.33-.36-.32a.35.35,0,0,0-.32.32H5.8a.64.64,0,0,1,.62-.65A.65.65,0,0,1,7.1,5.94Z"/><path class="cls-1" d="M8.94,2.3V2c.23-.09.32-.19.32-.35s-.1-.27-.33-.34V1.06a.13.13,0,0,1,0-.06.65.65,0,1,1,0,1.3Z"/><path class="cls-1" d="M0,1.82H.32v.32H0Z"/><path class="cls-1" d="M.65,2.81H.33V2.49H.65Z"/><path class="cls-1" d="M4.64,5.46H5v.32H4.64Z"/><path class="cls-1" d="M3.65.17H4V.49H3.65Z"/><path class="cls-1" d="M8.27,4.79a.49.49,0,0,1,.49-.49.5.5,0,0,1,.5.49.51.51,0,0,1-.5.5A.5.5,0,0,1,8.27,4.79Zm.66,0a.17.17,0,0,0-.17-.16.17.17,0,0,0,0,.33A.18.18,0,0,0,8.93,4.79Z"/></g></g></svg>