<svg xmlns="http://www.w3.org/2000/svg" viewBox="0 0 11.58 11.11"><g id="Layer_2" data-name="Layer 2"><g id="Layer_1-2" data-name="Layer 1"><path d="M0,5.87c0-.06,0-.12.05-.18a1.22,1.22,0,0,1,1.12-.86H3.6a.24.24,0,0,1,.26.24l0,.11c0-.06.06-.09.07-.12.45-1,.89-1.91,1.32-2.86a.39.39,0,0,0,0-.18c0-.49,0-1,0-1.47A.31.31,0,0,1,5.49.24,3.89,3.89,0,0,1,6.09,0a.85.85,0,0,1,.77.23,2.19,2.19,0,0,1,.85,2,8,8,0,0,1-.33,1.45,1,1,0,0,1,0,.14h2.92a1.33,1.33,0,0,1,1,.36,1.17,1.17,0,0,1,.13,1.57l-.06.09A1.1,1.1,0,0,1,11,7.61a1.1,1.1,0,0,1-.47,1.44,3.1,3.1,0,0,1,.08.42,1.07,1.07,0,0,1-1.07,1.15c-1.51,0-3,0-4.55,0a2.93,2.93,0,0,1-1.08-.25l-.09,0h0a4,4,0,0,1-.27.4,1.13,1.13,0,0,1-.86.38H1.21A1.18,1.18,0,0,1,0,10.1a.05.05,0,0,0,0,0Zm7.26,4.27H9.48a.59.59,0,0,0,.6-.36A.56.56,0,0,0,10,9.11a.23.23,0,0,1-.06-.26.24.24,0,0,1,.22-.17.61.61,0,0,0,.35-1,.26.26,0,0,1-.09-.28.27.27,0,0,1,.24-.17.6.6,0,0,0,.19-1.11c-.21-.13-.21-.31,0-.45v0a.7.7,0,0,0,0-1.17.89.89,0,0,0-.5-.13H7.08c-.28,0-.37-.14-.28-.4a9.66,9.66,0,0,0,.41-1.58A1.79,1.79,0,0,0,6.65.69.62.62,0,0,0,5.89.57a.14.14,0,0,0-.1.15c0,.46,0,.92,0,1.38a.57.57,0,0,1-.06.25c-.42.93-.86,1.86-1.28,2.79a.79.79,0,0,1-.5.52c-.07,0-.09.07-.09.15V9.69a.15.15,0,0,0,.1.16,2.49,2.49,0,0,0,1.16.29ZM3.38,5.31H1.28a.74.74,0,0,0-.8.8V9.86a.72.72,0,0,0,.69.76c.51,0,1,0,1.52,0A.71.71,0,0,0,3.37,10a2.81,2.81,0,0,0,0-.29V5.31Z"/></g></g></svg>