<svg xmlns="http://www.w3.org/2000/svg" viewBox="0 0 13 13"><g id="Layer_2" data-name="Layer 2"><g id="Layer_1-2" data-name="Layer 1"><path d="M0,6.88V6.12l0-.27A6.52,6.52,0,0,1,5.38.1L6.12,0h.76l.66.08a6.31,6.31,0,0,1,3.51,1.79A6.37,6.37,0,0,1,13,7.16a6.28,6.28,0,0,1-1.59,3.63A6.35,6.35,0,0,1,6.77,13a6.11,6.11,0,0,1-3.58-.9A6.42,6.42,0,0,1,.1,7.62C.06,7.38,0,7.13,0,6.88ZM6.51,1A5.49,5.49,0,1,0,12,6.5,5.49,5.49,0,0,0,6.51,1Z"/><path d="M7,4.87V6.15a.22.22,0,0,0,.1.22L8.78,7.62a.5.5,0,1,1-.57.83c-.35-.25-.69-.52-1-.78L6.24,7A.52.52,0,0,1,6,6.52c0-1,0-2,0-3A.49.49,0,0,1,6.41,3a.48.48,0,0,1,.55.3,1.09,1.09,0,0,1,0,.26Z"/></g></g></svg>